<mxfile host="app.diagrams.net" modified="2023-11-11T06:06:28.441Z" agent="Mozilla/5.0 (Windows NT 10.0; Win64; x64) AppleWebKit/537.36 (KHTML, like Gecko) Chrome/119.0.0.0 Safari/537.36" version="22.0.0" etag="8C3XqmpgQ5VgVvc_LYOa" type="github">
  <diagram name="Page-1" id="A9K-0HT-UEwowzMU4LhS">
    <mxGraphModel>
      <root>
        <mxCell id="0" />
        <mxCell id="1" parent="0" />
      </root>
    </mxGraphModel>
  </diagram>
</mxfile>
